<svg width="198" height="15" viewBox="0 0 198 15" fill="none" xmlns="http://www.w3.org/2000/svg">
<path d="M97.5 12.497V8.10945M110.767 8.10945L113.395 12.5035H113.359M110.767 8.10945H97.5M110.767 8.10945C112.509 8.10945 113.921 6.69762 113.921 4.95603V4.81718C113.921 2.9989 112.447 1.5249 110.628 1.5249H97.5V8.10945" stroke="white" stroke-width="3" stroke-linecap="square"/>
<path d="M194.422 14.0048C195.422 14.0048 196.422 14.0048 197.422 14.0048C197.422 13.4574 197.423 12.9101 197.423 12.3627C197.427 8.74861 197.43 5.1345 197.432 1.52039L197.433 0.0112717L195.922 0.0103556C194.422 0.00944614 192.922 0.00864327 191.422 0.00794685L190.759 0.00763941L190.309 0.495687C187.098 3.9793 183.886 7.46364 180.676 10.9487C180.566 11.0685 180.455 11.1882 180.345 11.308C180.332 11.3218 180.32 11.3358 180.308 11.3501L177.929 13.7965L181.422 13.8911C181.788 13.8767 182.153 13.7221 182.519 13.4272C182.519 12.7267 182.519 12.0261 182.519 11.3256C182.153 11.0307 181.788 10.876 181.422 10.8616L182.536 13.4027C182.549 13.3894 182.562 13.3758 182.575 13.362C182.685 13.2422 182.796 13.1225 182.906 13.0027C186.116 9.51755 189.326 6.03168 192.534 2.54508L191.422 3.03282C192.922 3.03213 194.422 3.03133 195.922 3.03042L194.412 1.52039C194.414 5.1345 194.417 8.74861 194.42 12.3627C194.421 12.9101 194.421 13.4574 194.422 14.0048Z" fill="white"/>
<path d="M168.422 0.0265198C167.422 0.0265198 166.422 0.0265198 165.422 0.0265198C165.421 0.575348 165.421 1.12418 165.42 1.673C165.417 5.28318 165.414 8.89336 165.412 12.5035L165.411 14.0126L166.922 14.0135C168.422 14.0145 169.922 14.0153 171.422 14.016L172.09 14.0163L172.54 13.5215C175.752 9.99597 178.962 6.46976 182.172 2.94284C182.282 2.82208 182.391 2.70133 182.501 2.58057C182.515 2.5653 182.529 2.54973 182.542 2.53386L184.89 0.103791L181.422 9.53674e-06C181.057 0.0157232 180.692 0.170301 180.327 0.463746C180.327 1.16427 180.327 1.86479 180.327 2.56531C180.692 2.85875 181.057 3.01333 181.422 3.02905L180.302 0.495194C180.287 0.509867 180.273 0.524837 180.259 0.540108C180.149 0.660866 180.039 0.781623 179.929 0.902383C176.72 4.42941 173.511 7.95716 170.303 11.4856L171.422 10.9911C169.922 10.9918 168.422 10.9926 166.922 10.9935L168.432 12.5035C168.43 8.89336 168.427 5.28318 168.423 1.673C168.423 1.12418 168.422 0.575348 168.422 0.0265198Z" fill="white"/>
<path d="M90.5 1.5249H77C74.7909 1.5249 73 3.31576 73 5.5249V7.01541M90.5 12.5059H77C74.7909 12.5059 73 10.7151 73 8.50592V7.01541M73 7.01541H87.5" stroke="white" stroke-width="3" stroke-linecap="square"/>
<path d="M49.5 12.5035V8.5249M49.5 8.5249V1.5249H62.5C64.433 1.5249 66 3.09191 66 5.0249C66 6.9579 64.433 8.5249 62.5 8.5249H49.5Z" stroke="white" stroke-width="3" stroke-linecap="square"/>
<path d="M26.5 1.5249V8.5249C26.5 10.734 28.2909 12.5249 30.5 12.5249H38.5C40.7091 12.5249 42.5 10.734 42.5 8.5249V1.5249" stroke="white" stroke-width="3" stroke-linecap="square"/>
<path d="M19.5 1.5249H4.25C2.73122 1.5249 1.5 2.75612 1.5 4.2749C1.5 5.79369 2.73122 7.0249 4.25 7.0249H16.75C18.2688 7.0249 19.5 8.25612 19.5 9.7749C19.5 11.2937 18.2688 12.5249 16.75 12.5249H1.5" stroke="white" stroke-width="3" stroke-linecap="square"/>
<path d="M155.922 1.5249H147.922C145.713 1.5249 143.922 3.31576 143.922 5.5249V8.50354C143.922 10.7127 145.713 12.5035 147.922 12.5035H155.922C158.131 12.5035 159.922 10.7127 159.922 8.50354V5.5249C159.922 3.31576 158.131 1.5249 155.922 1.5249Z" stroke="white" stroke-width="3" stroke-linecap="square"/>
<path d="M120.92 12.4882V1.5249H124.978L132.528 12.5035H136.816L136.922 1.5249" stroke="white" stroke-width="3" stroke-linecap="square"/>
</svg>
